<svg xmlns="http://www.w3.org/2000/svg" width="233.306" height="233.306" viewBox="0 0 233.306 233.306"><defs><style>.a{fill:#9577ff;}</style></defs><g transform="translate(116.653) rotate(45)"><g transform="translate(0 0)"><path class="a" d="M164.972,162.4a2.571,2.571,0,1,1-2.571-2.571A2.567,2.567,0,0,1,164.972,162.4Zm-22.831,0a2.571,2.571,0,1,1-2.571-2.571A2.567,2.567,0,0,1,142.142,162.4Zm-22.831,0a2.571,2.571,0,1,1-2.571-2.571A2.567,2.567,0,0,1,119.311,162.4Zm-22.831,0a2.571,2.571,0,1,1-2.571-2.571A2.6,2.6,0,0,1,96.48,162.4Zm-22.846,0a2.571,2.571,0,1,1-2.571-2.571A2.567,2.567,0,0,1,73.634,162.4Zm-22.831,0a2.571,2.571,0,1,1-2.571-2.571A2.567,2.567,0,0,1,50.8,162.4Zm-22.831,0a2.571,2.571,0,1,1-2.571-2.571A2.567,2.567,0,0,1,27.972,162.4Zm-22.831,0a2.571,2.571,0,1,1-2.571-2.571A2.567,2.567,0,0,1,5.142,162.4Zm159.831-22.831A2.571,2.571,0,1,1,162.4,137,2.567,2.567,0,0,1,164.972,139.571Zm-22.831,0A2.571,2.571,0,1,1,139.571,137,2.567,2.567,0,0,1,142.142,139.571Zm-22.831,0A2.571,2.571,0,1,1,116.74,137,2.567,2.567,0,0,1,119.311,139.571Zm-22.831,0A2.571,2.571,0,1,1,93.909,137,2.567,2.567,0,0,1,96.48,139.571Zm-22.846,0A2.571,2.571,0,1,1,71.063,137,2.567,2.567,0,0,1,73.634,139.571Zm-22.831,0A2.571,2.571,0,1,1,48.232,137,2.567,2.567,0,0,1,50.8,139.571Zm-22.831,0A2.571,2.571,0,1,1,25.4,137,2.567,2.567,0,0,1,27.972,139.571Zm-22.831,0A2.571,2.571,0,1,1,2.571,137,2.567,2.567,0,0,1,5.142,139.571ZM164.972,116.74a2.571,2.571,0,1,1-2.571-2.571A2.567,2.567,0,0,1,164.972,116.74Zm-22.831,0a2.571,2.571,0,1,1-2.571-2.571A2.567,2.567,0,0,1,142.142,116.74Zm-22.831,0a2.571,2.571,0,1,1-2.571-2.571A2.567,2.567,0,0,1,119.311,116.74Zm-22.831,0a2.571,2.571,0,1,1-2.571-2.571A2.567,2.567,0,0,1,96.48,116.74Zm-22.846,0a2.571,2.571,0,1,1-2.571-2.571A2.567,2.567,0,0,1,73.634,116.74Zm-22.831,0a2.571,2.571,0,1,1-2.571-2.571A2.567,2.567,0,0,1,50.8,116.74Zm-22.831,0a2.571,2.571,0,1,1-2.571-2.571A2.567,2.567,0,0,1,27.972,116.74Zm-22.831,0a2.571,2.571,0,1,1-2.571-2.571A2.567,2.567,0,0,1,5.142,116.74Zm0-22.831a2.571,2.571,0,1,1-2.571-2.571A2.567,2.567,0,0,1,5.142,93.909Zm22.831,0A2.571,2.571,0,1,1,25.4,91.338,2.567,2.567,0,0,1,27.972,93.909Zm22.831,0a2.571,2.571,0,1,1-2.571-2.571A2.567,2.567,0,0,1,50.8,93.909Zm22.831,0a2.571,2.571,0,1,1-2.571-2.571A2.567,2.567,0,0,1,73.634,93.909Zm22.846,0a2.571,2.571,0,1,1-2.571-2.571A2.567,2.567,0,0,1,96.48,93.909Zm22.831,0a2.571,2.571,0,1,1-2.571-2.571A2.567,2.567,0,0,1,119.311,93.909Zm22.831,0a2.571,2.571,0,1,1-2.571-2.571A2.566,2.566,0,0,1,142.142,93.909Zm22.831,0a2.571,2.571,0,1,1-2.571-2.571A2.567,2.567,0,0,1,164.972,93.909Zm-137-22.831A2.571,2.571,0,1,1,25.4,68.508,2.567,2.567,0,0,1,27.972,71.078Zm22.831,0a2.571,2.571,0,1,1-2.571-2.571A2.567,2.567,0,0,1,50.8,71.078Zm22.831,0a2.571,2.571,0,1,1-2.571-2.571A2.567,2.567,0,0,1,73.634,71.078Zm22.846,0a2.571,2.571,0,1,1-2.571-2.571A2.567,2.567,0,0,1,96.48,71.078Zm22.831,0a2.571,2.571,0,1,1-2.571-2.571A2.567,2.567,0,0,1,119.311,71.078Zm22.831,0a2.571,2.571,0,1,1-2.571-2.571A2.567,2.567,0,0,1,142.142,71.078Zm22.831,0a2.571,2.571,0,1,1-2.571-2.571A2.567,2.567,0,0,1,164.972,71.078Zm-159.831,0a2.571,2.571,0,1,1-2.571-2.571A2.567,2.567,0,0,1,5.142,71.078ZM164.972,48.232a2.571,2.571,0,1,1-2.571-2.571A2.567,2.567,0,0,1,164.972,48.232Zm-22.831,0a2.571,2.571,0,1,1-2.571-2.571A2.567,2.567,0,0,1,142.142,48.232Zm-22.831,0a2.571,2.571,0,1,1-2.571-2.571A2.567,2.567,0,0,1,119.311,48.232Zm-22.831,0a2.571,2.571,0,1,1-2.571-2.571A2.567,2.567,0,0,1,96.48,48.232Zm-22.846,0a2.571,2.571,0,1,1-2.571-2.571A2.567,2.567,0,0,1,73.634,48.232Zm-22.831,0a2.571,2.571,0,1,1-2.571-2.571A2.567,2.567,0,0,1,50.8,48.232Zm-22.831,0A2.571,2.571,0,1,1,25.4,45.662,2.567,2.567,0,0,1,27.972,48.232Zm-22.831,0a2.571,2.571,0,1,1-2.571-2.571A2.567,2.567,0,0,1,5.142,48.232ZM164.972,25.4a2.571,2.571,0,1,1-2.571-2.571A2.567,2.567,0,0,1,164.972,25.4Zm-22.831,0a2.571,2.571,0,1,1-2.571-2.571A2.567,2.567,0,0,1,142.142,25.4Zm-22.831,0a2.571,2.571,0,1,1-2.571-2.571A2.567,2.567,0,0,1,119.311,25.4Zm-22.831,0a2.571,2.571,0,1,1-2.571-2.571A2.567,2.567,0,0,1,96.48,25.4Zm-22.846,0a2.571,2.571,0,1,1-2.571-2.571A2.567,2.567,0,0,1,73.634,25.4ZM50.8,25.4a2.571,2.571,0,1,1-2.571-2.571A2.567,2.567,0,0,1,50.8,25.4Zm-22.831,0A2.571,2.571,0,1,1,25.4,22.831,2.567,2.567,0,0,1,27.972,25.4Zm-22.831,0a2.571,2.571,0,1,1-2.571-2.571A2.567,2.567,0,0,1,5.142,25.4ZM164.972,2.571A2.571,2.571,0,1,1,162.4,0,2.567,2.567,0,0,1,164.972,2.571Zm-22.831,0A2.571,2.571,0,1,1,139.571,0,2.567,2.567,0,0,1,142.142,2.571Zm-22.831,0A2.571,2.571,0,1,1,116.74,0,2.567,2.567,0,0,1,119.311,2.571Zm-22.831,0A2.571,2.571,0,1,1,93.909,0,2.567,2.567,0,0,1,96.48,2.571Zm-22.846,0A2.571,2.571,0,1,1,71.063,0,2.567,2.567,0,0,1,73.634,2.571Zm-22.831,0A2.571,2.571,0,1,1,48.232,0,2.567,2.567,0,0,1,50.8,2.571Zm-22.831,0A2.571,2.571,0,1,1,25.4,0,2.567,2.567,0,0,1,27.972,2.571Zm-22.831,0A2.571,2.571,0,1,1,2.571,0,2.567,2.567,0,0,1,5.142,2.571Z" transform="translate(0 0)"/></g></g></svg>